<?xml version="1.0" encoding="UTF-8"?>
<svg width="64" height="64" enable-background="new 0 0 230 230" version="1.1" viewBox="0 0 64 64" xmlns="http://www.w3.org/2000/svg">
 <title>Haxe logo</title>
 <g transform="matrix(.051147 0 0 -.051148 0 87.222)">
  <path d="m625.65 1548.8-356.35 39.464-269.3 116.95h312.81l312.83-156.43" fill="#fbc707"/>
  <path d="m625.65 1548.8 364.51 31.304 261.14 125.11h-312.83l-312.81-156.43" fill="#fbc707"/>
  <path d="m625.65 610.37 340.02-12.241 285.62-144.17h-312.83l-312.81 156.44" fill="#f68712"/>
  <path d="m625.65 610.37h-342.74l-282.9-156.41h312.81l312.83 156.44" fill="#f25c19"/>
  <path d="m156.41 1079.6v-329.13l-156.41-296.5v312.81l156.41 312.83" fill="#fff200"/>
  <path d="m156.41 1079.6-25.837 326.44-130.57 299.2v-312.81l156.41-312.82" fill="#fff200"/>
  <path d="m1094.9 1079.6 34.024 342.76 122.41 282.88v-312.81l-156.43-312.82" fill="#f1471d"/>
  <path d="m1094.9 1079.6 28.583-367.21 127.85-258.42v312.81l-156.43 312.83" fill="#f1471d"/>
  <path d="m0 1705.2 625.65-156.41-100.65-398.49-368.59-70.741-156.41 625.61" fill="#fab20b"/>
  <path d="m1251.3 1705.2-156.43-625.64-420.25 76.2-48.964 393.05 625.65 156.36" fill="#f47216"/>
  <path d="m1251.3 453.96-625.65 156.41 70.725 414.8 398.49 54.388 156.43-625.56" fill="#f25c19"/>
  <path d="m0 453.96 156.41 625.63 376.75-84.31 92.487-384.91-625.65-156.37" fill="#f89c0e"/>
  <path d="m625.65 1548.8-469.24-469.23 469.24-469.22 469.21 469.22-469.21 469.21" fill="#f68712"/>
 </g>
</svg>
